# xmcd
#
# Track frame offsets: 
#        150
#        19775
#        44307
#        61290
#        88695
#        116660
#        141482
#        166062
#        185587
#        204630
#        225867
#        245995
#
# Disc length: 3657 seconds
#
# Revision: 2
# Processed by: cddbd v1.5.1PL0 Copyright (c) Steve Scherf et al.
# Submitted via: ExactAudioCopy v0.95b2
#
DISCID=a50e470c
DTITLE=Clifton Chenier - Live At St. Mark's
DYEAR=1972
DGENRE=Zydeco
TTITLE0=Zydeco Cha Cha
TTITLE1=Bad Luck And Trouble
TTITLE2=Cher Catin (Zydeco)
TTITLE3=New Ma Negress
TTITLE4=J'is Conet, C'est Pas Ma Femme
TTITLE5=Rock House
TTITLE6=I'm a Hog For You
TTITLE7=Mama Told Papa
TTITLE8=Tu Le Ton Son Ton (Every Now and Then)
TTITLE9=You're My Mule
TTITLE10=Tighten Up Zydeco
TTITLE11=Going Home Blues and Mess Around
EXTD=
EXTT0=
EXTT1=
EXTT2=
EXTT3=
EXTT4=
EXTT5=
EXTT6=
EXTT7=
EXTT8=
EXTT9=
EXTT10=
EXTT11=
PLAYORDER=
